<?xml version="1.0" encoding="UTF-8"?>
<svg id="Layer_2" data-name="Layer 2" xmlns="http://www.w3.org/2000/svg" viewBox="0 0 17 17">
  <defs>
    <style>
      .cls-1 {
        fill: gray;
      }
    </style>
  </defs>
  <g id="Layer_1-2" data-name="Layer 1">
    <path class="cls-1" d="M0,8.5C0,3.81,3.81,0,8.5,0h0v.86c-4.22,0-7.63,3.42-7.64,7.64h0c0,4.22,3.42,7.63,7.64,7.64h0c4.22,0,7.63-3.42,7.64-7.64h0c0-4.22-3.42-7.63-7.64-7.64h0v-.86c4.7,0,8.5,3.81,8.5,8.5h0c0,4.69-3.81,8.5-8.5,8.5h0C3.81,17,0,13.2,0,8.5h0ZM5.55,14.74v-2.26h.93v-4.46h-1.42l.03-2.13h2.41c-.68-.36-1.15-1.08-1.15-1.91h0c0-1.19.96-2.16,2.16-2.16h0v.87c-.71,0-1.29.58-1.29,1.29h0c0,.71.58,1.29,1.29,1.29h0c.71,0,1.29-.58,1.29-1.29h0c0-.71-.58-1.29-1.29-1.29h0v-.87c1.19,0,2.16.97,2.16,2.16h0c0,.83-.47,1.55-1.15,1.91h.72v6.59h1.39v2.25h-6.07ZM11.19,14.31v-.43.43h0ZM6.42,13.88h4.34v-.52h-1.39v-6.59h-3.42v.41s1.4,0,1.4,0v6.19h-.93v.53h0Z"/>
  </g>
</svg>