<?xml version="1.0" encoding="UTF-8"?>
<svg id="Layer_2" data-name="Layer 2" xmlns="http://www.w3.org/2000/svg" viewBox="0 0 749.62 749.62">
  <g id="Elements">
    <path d="M374.05,749.62l-109.56-110.32H109.25l.54-155.48L0,374.04l110.33-109.55V109.24l155.48.54L375.58,0l109.56,110.32h155.25l-.54,155.48,109.78,109.78-110.32,109.56v155.25l-155.48-.54-109.78,109.78ZM118.34,630.24h149.92l105.81,106.55,106.02-106.02,150.15.52v-149.92l106.54-105.81-106.01-106.01.52-150.15h-149.92L375.56,12.84l-106.02,106.02-150.15-.52v149.92L12.84,374.06l106.02,106.02-.52,150.15Z"/>
  </g>
</svg>