<?xml version="1.0" encoding="UTF-8"?>
<svg id="Layer_2" data-name="Layer 2" xmlns="http://www.w3.org/2000/svg" viewBox="0 0 749.62 749.62">
  <g id="Elements">
    <g>
      <path d="M374.05,749.62l-109.56-110.32H109.25l.54-155.48L0,374.04l110.33-109.55V109.24l155.48.54L375.58,0l109.56,110.32h155.25l-.54,155.48,109.78,109.78-110.32,109.56v155.25l-155.48-.54-109.78,109.78ZM118.34,630.24h149.92l105.81,106.55,106.02-106.02,150.15.52v-149.92l106.54-105.81-106.01-106.01.52-150.15h-149.92L375.56,12.84l-106.02,106.02-150.15-.52v149.92L12.84,374.06l106.02,106.02-.52,150.15Z"/>
      <path d="M374.22,666.32l-85.21-85.8h-120.74l.42-120.92-85.39-85.39,85.81-85.2v-120.74l120.92.42,85.38-85.38,85.21,85.8h120.74l-.42,120.92,85.38,85.38-85.8,85.21v120.74l-120.92-.42-85.38,85.38ZM177.36,571.46h115.42l81.46,82.03,81.62-81.62,115.6.4v-115.42l82.02-81.46-81.62-81.61.4-115.6h-115.42l-81.46-82.03-81.62,81.62-115.6-.4v115.42l-82.03,81.45,81.62,81.62-.4,115.6Z"/>
    </g>
  </g>
</svg>