<?xml version="1.0" encoding="UTF-8"?>
<svg id="Layer_2" data-name="Layer 2" xmlns="http://www.w3.org/2000/svg" viewBox="0 0 744.19 744.19">
  <g id="Elements">
    <g>
      <path d="M194.94,226.39v72.53l-50.16,50.32L22.18,226.65l144.75-.22,28-.04M204,217.31l-37.08.06-166.58.26,144.44,144.44,59.22-59.4v-85.36h0Z"/>
      <path d="M227.51,21.83l122.34,121.96-51.29,51.29-71.06.11V21.83M218.45,0v204.27l83.88-.13,60.35-60.36L218.45,0h0Z"/>
      <path d="M298.92,549.25l50.32,50.16-122.58,122.58-.27-172.75h72.53M302.66,540.19h-85.36l.32,203.66,144.44-144.44-59.4-59.22h0Z"/>
      <path d="M143.79,394.33l51.29,51.29.11,71.06H21.83l121.96-122.34M143.78,381.5L0,525.74h204.27l-.13-83.88-60.36-60.36h0Z"/>
      <path d="M516.67,548.99v173.36l-122.34-121.96,51.29-51.29,71.06-.11M525.74,539.92l-83.88.13-60.36,60.36,144.23,143.78v-204.27h0Z"/>
      <path d="M599.42,394.95l66.58,66.58,56,56-172.74.26v-72.53l50.13-50.28.04-.04M599.4,382.12l-6.45,6.47-52.77,52.93v85.35l195.64-.3h8.02s-71.44-71.45-71.44-71.45l-73-73.01h0Z"/>
      <path d="M722.35,227.51l-121.96,122.34-51.29-51.29-.11-71.06h173.36M744.19,218.45h-204.27l.13,83.88,60.36,60.35,143.78-144.23h0Z"/>
      <path d="M372.52,167.2l57.23,57.63,2.66,2.68h84.86l-.28,81.22v3.77s2.65,2.67,2.65,2.67l57.34,57.34-57.63,57.24-2.68,2.66v84.86l-81.22-.28h-3.77s-2.67,2.65-2.67,2.65l-57.34,57.34-57.23-57.63-2.66-2.68h-84.86l.28-81.22v-3.77s-2.65-2.67-2.65-2.67l-57.34-57.34,57.64-57.23,2.68-2.66v-84.86l81.22.28h3.77s2.67-2.65,2.67-2.65l57.34-57.34M372.54,154.36l-63.77,63.77-90.32-.31v90.18l-64.09,63.64,63.77,63.77-.31,90.32h90.18l63.64,64.09,63.77-63.77,90.32.31v-90.18l64.08-63.65-63.77-63.77.31-90.32h-90.18l-63.64-64.09h0Z"/>
      <path d="M517.53,22.18l.16,105.16.11,67.59h-72.53l-50.32-50.16,2.57-2.57,120.01-120.02M526.56.34l-135.45,135.46-8.99,8.99,59.4,59.22h85.36l-.12-76.67-.2-126.99h0Z"/>
      <polygon points="526.56 .34 391.11 135.79 526.56 .34 526.56 .34 526.56 .34"/>
      <polygon points="526.76 127.33 526.88 204 526.76 127.33 526.76 127.33"/>
    </g>
  </g>
</svg>