<?xml version="1.0" encoding="UTF-8"?>
<svg id="Layer_2" data-name="Layer 2" xmlns="http://www.w3.org/2000/svg" viewBox="0 0 17.38 17.38">
  <defs>
    <style>
      .cls-1 {
        fill: gray;
      }
    </style>
  </defs>
  <g id="Layer_1-2" data-name="Layer 1">
    <path class="cls-1" d="M8.69,0C3.9,0,0,3.9,0,8.69s3.9,8.69,8.69,8.69,8.69-3.9,8.69-8.69S13.48,0,8.69,0ZM14.83,5.6c.15.15.26.33.35.53.08.21.12.42.11.63l-1.65-.02,1.19-1.14ZM13.07,3.43c.19.08.37.2.53.35.16.16.27.34.35.53l-1.52.64.64-1.52ZM2.32,5.92c.09-.2.21-.38.36-.52l1.15,1.18-1.65-.04c0-.21.05-.42.13-.62ZM1.71,8.69c0-.22.04-.43.13-.62l1.52.62-1.52.62c-.08-.19-.13-.4-.13-.62ZM2.55,11.78c-.15-.15-.26-.33-.35-.53-.08-.2-.12-.42-.11-.62l1.65.02-1.19,1.14ZM4.31,13.95c-.19-.08-.37-.2-.53-.35-.16-.16-.27-.34-.35-.53l1.52-.64-.64,1.52ZM3.43,4.31c.08-.19.2-.37.35-.53.16-.16.34-.27.53-.35l.64,1.52-1.52-.64ZM6.54,15.19c-.21,0-.42-.04-.62-.13-.2-.09-.38-.21-.52-.36l1.18-1.15-.04,1.65ZM6.73,3.74l-1.14-1.19c.15-.15.33-.26.53-.35.21-.08.42-.12.63-.11l-.02,1.65ZM8.69,15.66c-.22,0-.43-.04-.62-.12l.62-1.52.62,1.52c-.19.08-.4.12-.62.12ZM8.69,3.36l-.62-1.52c.19-.08.4-.12.62-.12s.43.04.62.12l-.62,1.52ZM11.25,15.18c-.21.08-.42.12-.63.11l.02-1.65,1.14,1.19c-.15.15-.33.26-.53.35ZM10.8,3.83l.04-1.65c.21,0,.42.04.62.13.2.09.38.21.52.36l-1.18,1.15ZM13.6,13.6c-.16.16-.34.27-.53.35l-.64-1.52,1.52.64c-.08.19-.2.37-.35.53ZM15.06,11.45c-.09.2-.21.38-.36.52l-1.15-1.18,1.65.04c0,.21-.05.42-.13.62ZM14.01,8.69l1.52-.62c.08.19.13.4.13.62s-.04.43-.13.62l-1.52-.62Z"/>
  </g>
</svg>