<?xml version="1.0" encoding="utf-8" ?>
<svg xmlns="http://www.w3.org/2000/svg" xmlns:xlink="http://www.w3.org/1999/xlink" width="4800" height="4800">
	<path transform="scale(9.375 9.375)" d="M191.976 110.51C194.112 107.423 197.252 104.686 199.883 102.01L240.684 61.219C244.483 57.4702 249.897 50.5626 254.784 48.5213C260.193 48.0602 277.74 68.0511 282.01 72.3568L309.615 100.219C313.054 103.678 316.658 106.968 320.013 110.51L387.199 110.496C400.114 110.493 401.123 108.9 400.83 122.83C400.729 127.641 400.789 132.463 400.789 137.275L400.797 191.58C404.725 194.123 407.739 198.064 411.019 201.351L429.331 219.678C438.295 228.689 447.445 237.495 456.349 246.568C458.133 248.386 465.914 254.03 463.908 256.906C460.179 262.249 450.55 270.615 445.724 275.425L400.797 320.097L400.812 386.637C400.822 400.942 401.533 400.669 385.922 400.669L320.781 400.657C315.548 405.186 310.702 410.297 305.79 415.167L278.515 442.25C271.911 448.93 265.438 456.008 258.448 462.275C252.445 463.676 248.686 457.344 244.904 453.655C238.925 447.823 232.931 442.04 227.065 436.092L205.16 413.9C200.769 409.48 196.267 405.177 191.976 400.657L127.19 400.664C123.128 400.664 112.706 402.129 111.797 396.614C110.672 389.784 111.328 378.315 111.33 370.961L111.322 321.346C108.852 317.025 100.288 309.501 96.321 305.547L64.3811 273.461C59.921 268.93 55.1851 264.556 50.9217 259.852C44.6614 252.945 56.371 246.089 61.6778 240.664L104.33 197.785C106.629 195.473 109.064 193.221 111.032 190.615L111.322 190.227L111.29 123.354C111.244 109.239 112.044 110.456 124.851 110.494L191.976 110.51ZM255.819 61.1534C246.911 69.5682 238.365 78.4627 229.764 87.194L213.814 103.101C209.047 107.936 201.007 117.083 196.044 121.038C186.829 120.85 177.574 121.039 168.355 121.038L121.933 121.038L121.933 195.509C113.967 203.744 105.607 211.669 97.4544 219.722L68.9107 248.425C66.4803 250.852 63.9402 253.182 61.7645 255.847C76.83 271.61 92.5539 286.822 107.967 302.252C126.114 320.418 121.937 311.524 121.932 338.438L121.933 390.256L187.626 390.245C190.422 390.239 193.255 390.082 196.044 390.256C209.311 400.759 251.041 448.088 256.335 449.59L256.688 449.346C263.837 441.551 271.593 434.218 279.174 426.843L310.573 395.69C312.394 393.894 314.315 391.654 316.45 390.256L390.458 390.256L390.455 334.272C390.454 331.145 389.978 318.335 390.522 316.058C391.027 313.948 443.848 262.578 450.955 255.847C433.602 239.633 417.145 222.292 400.38 205.455C397.111 202.173 393.483 198.991 390.458 195.509L390.458 121.038L324.874 121.042C317.918 121.039 316.857 122.053 311.79 116.989C306.378 111.58 257.814 61.9763 255.819 61.1534Z"/>
	<path transform="scale(9.375 9.375)" d="M203.884 140.552C209.371 136.202 214.518 130.344 219.479 125.336L244.292 100.698C247.209 97.8399 251.136 92.8526 254.784 91.259C260.962 90.9716 267.328 100.435 271.662 104.791L291.776 124.775C296.999 130.047 302.108 135.609 307.638 140.552L348.352 140.556C353.445 140.552 361.966 139.982 366.618 140.872C373.232 142.138 370.734 159.665 370.73 165.071L370.715 203.963C375.195 207.216 380.19 212.973 384.274 217.011C395.105 227.721 405.742 238.659 416.649 249.281C420.639 253.167 423.592 254.726 419.406 259.46C414.678 264.806 409.144 269.727 404.082 274.779L370.715 307.882L370.707 346.889C370.712 352.594 371.238 360.329 370.583 365.74C369.657 373.38 352.417 370.509 346.387 370.508L308.66 370.496C304.358 373.782 299.33 379.515 295.416 383.43L269.363 409.378C265.783 412.905 261.197 418.611 256.688 420.542C252.342 421.43 246.151 413.068 243.45 410.299L228.627 395.255C220.48 387.02 211.462 379.246 203.884 370.496L166.181 370.507C160.13 370.508 142.501 373.364 141.419 365.822C140.705 360.844 141.248 352.644 141.252 347.263L141.242 307.882C136.9 302.672 131.8 297.945 127.007 293.136L103.337 269.431C98.3352 264.435 87.3193 258.232 92.8434 252.062C97.1757 247.224 102.285 242.825 106.881 238.213L141.242 203.963L141.236 165.647C141.236 160.057 138.558 141.799 145.425 140.787C150.675 140.014 158.99 140.563 164.565 140.563L203.884 140.552ZM255.819 103.667C245.379 114.637 234.437 125.251 223.712 135.949C220.004 139.648 213.079 147.428 209.291 149.98C206.027 152.179 159.155 150.899 151.742 150.898C151.553 155.65 151.736 160.451 151.738 165.21L151.737 192.959C151.761 211.806 153.364 206.947 139.396 220.861L119.084 240.971C114.198 245.79 109.06 250.595 104.635 255.847C107.63 258.418 110.337 261.349 113.116 264.151L126.513 277.588C130.125 281.164 151.366 300.765 151.662 304.778C152.119 310.967 151.757 317.434 151.756 323.648L151.742 360.085L208.066 360.085C211.716 363.599 254.559 407.53 256.268 407.643L256.688 407.335L289.565 374.43C292.877 371.125 300.496 362.693 303.869 360.593C306.31 359.072 353.727 360.086 360.324 360.085L360.313 320.354C360.314 311.375 357.798 305.867 364.027 299.632L390.486 273.506C396.419 267.707 402.551 261.999 408.118 255.847C404.634 252.007 400.81 248.482 397.153 244.809L374.124 221.917C357.958 206.102 360.299 212.511 360.307 190.194L360.324 150.898L303.3 150.898C299.585 148.274 296.483 144.107 293.264 140.876L269.578 117.314C265.183 112.876 260.723 107.439 255.819 103.667Z"/>
	<path transform="scale(9.375 9.375)" d="M227.313 190.227C229.686 187.182 252.378 164.607 254.784 163.273C259.673 162.948 279.617 185.866 284.635 190.227L306.653 190.208C323.554 190.184 321.855 190.541 321.83 205.62L321.816 227.121C323.758 228.603 325.49 230.495 327.248 232.192L337.101 241.734C340.744 245.239 344.86 248.461 348.28 252.162C353.262 257.553 346.547 261.076 342.311 265.061L330.871 276.036C327.747 279.045 324.479 281.953 321.816 285.39L321.842 306.221C321.86 321.896 323.39 321.325 306.457 321.322C299.184 321.32 291.907 321.423 284.635 321.346C275.992 330.153 267.39 339.152 258.448 347.648C253.535 351.21 247.863 342.091 244.341 338.503L227.313 321.346C219.89 321.058 212.344 321.354 204.908 321.362C188.663 321.379 190.45 320.019 190.463 305.795L190.479 285.39C182.991 278.329 172.017 267.864 165.274 260.082C159.705 253.654 170.117 247.123 174.199 243.032L183.475 233.718C185.725 231.459 187.93 229.045 190.479 227.121L190.469 205.178C190.418 190.262 188.372 190.173 204.997 190.214L227.313 190.227ZM255.819 176.45C248.098 184.714 239.894 192.833 231.815 200.755L200.76 200.755C200.763 210.824 200.956 220.943 200.76 231.008C194.03 239.105 183.82 247.929 176.301 255.847C184.009 264.157 193.633 272.442 200.76 280.775C200.864 290.765 200.75 300.762 200.76 310.753L231.039 310.753C234.174 313.316 254.927 335.009 256.165 335.09L256.688 334.559C261.348 329.948 276.869 313.268 281.02 310.753L311.516 310.753C311.507 300.808 311.104 290.703 311.516 280.775C318.952 271.486 328.966 264.71 336.786 255.847C306.989 226.914 311.565 241.054 311.516 200.755L290.565 200.771C287.094 200.774 283.504 200.974 280.046 200.755C271.784 192.858 264.117 184.318 255.819 176.45Z"/>
</svg>
